<svg width="227" height="226" xmlns="http://www.w3.org/2000/svg" xmlns:xlink="http://www.w3.org/1999/xlink" xml:space="preserve" overflow="hidden"><g transform="translate(-328 -443)"><path d="M190.688 51.7917C190.672 46.5974 186.465 42.3905 181.271 42.375L138.896 42.375 138.896 35.3125C138.888 28.8148 133.623 23.5494 127.125 23.5417L98.875 23.5417C92.3773 23.5494 87.1119 28.8148 87.1042 35.3125L87.1042 42.375 44.7292 42.375C39.5349 42.3905 35.328 46.5974 35.3125 51.7917L35.3125 65.9167 44.8445 65.9167 51.342 193.64C51.6603 199.898 56.8256 204.809 63.0917 204.812L162.908 204.812C169.176 204.812 174.344 199.9 174.663 193.64L181.155 65.9167 190.688 65.9167ZM91.8125 35.3125C91.8125 31.4119 94.9744 28.25 98.875 28.25L127.125 28.25C131.026 28.25 134.188 31.4119 134.188 35.3125L134.188 42.375 91.8125 42.375ZM169.957 193.4C169.766 197.154 166.668 200.102 162.908 200.104L63.0917 200.104C59.3267 200.109 56.2199 197.16 56.0292 193.4L49.5599 65.9167 176.45 65.9167ZM185.979 61.2083 40.0208 61.2083 40.0208 51.7917C40.0208 49.1913 42.1288 47.0833 44.7292 47.0833L181.271 47.0833C183.871 47.0833 185.979 49.1913 185.979 51.7917Z" transform="matrix(1.00442 0 0 1 328 443)"/><path d="M84.75 183.625 84.8677 183.625C86.1663 183.562 87.1677 182.458 87.1044 181.159 87.1042 181.158 87.1042 181.157 87.1042 181.155L82.3958 84.6347C82.3309 83.3344 81.2242 82.3332 79.924 82.3982 78.6238 82.4632 77.6225 83.5699 77.6875 84.8701L82.3958 181.391C82.4599 182.644 83.4952 183.627 84.75 183.625Z" transform="matrix(1.00442 0 0 1 328 443)"/><path d="M113 183.625C114.3 183.625 115.354 182.571 115.354 181.271L115.354 84.75C115.354 83.4498 114.3 82.3958 113 82.3958 111.7 82.3958 110.646 83.4498 110.646 84.75L110.646 181.271C110.646 182.571 111.7 183.625 113 183.625Z" transform="matrix(1.00442 0 0 1 328 443)"/><path d="M141.135 183.625 141.25 183.625C142.506 183.626 143.543 182.641 143.604 181.386L148.312 84.8654C148.377 83.5652 147.376 82.4585 146.076 82.3935 144.776 82.3285 143.669 83.3297 143.604 84.6299L138.896 181.151C138.828 182.449 139.826 183.557 141.124 183.625 141.128 183.625 141.131 183.625 141.135 183.625Z" transform="matrix(1.00442 0 0 1 328 443)"/></g></svg>